<svg width="733" height="793" viewBox="0 0 733 793" fill="none" xmlns="http://www.w3.org/2000/svg">
<mask id="path-1-inside-1_33_56" fill="white">
<path d="M419.728 211.001C425.25 211.001 429.727 215.478 429.727 221.001C429.726 226.524 425.248 231.002 419.726 231.002L405.376 231.001V323.203C405.376 326.264 407.371 328.953 410.257 329.973C461.546 348.095 498 394.262 498 448.354C498 518.262 437.11 574.935 362 574.936C286.89 574.936 226 518.263 226 448.354C226 394.044 262.748 347.725 314.362 329.757C317.264 328.747 319.275 326.049 319.275 322.977V231.001H307.285C301.763 231.001 297.286 226.524 297.286 221.001C297.287 215.478 301.764 211 307.287 211L419.728 211.001Z"/>
</mask>
<path d="M419.728 211.001L419.728 196.001H419.728L419.728 211.001ZM429.727 221.001L444.727 221.003V221.002L429.727 221.001ZM419.726 231.002L419.725 246.002H419.726L419.726 231.002ZM405.376 231.001L405.377 216.001L390.376 216V231.001H405.376ZM410.257 329.973L415.254 315.83L415.254 315.83L410.257 329.973ZM498 448.354L513 448.354V448.354H498ZM362 574.936V589.936H362L362 574.936ZM226 448.354H211V448.354L226 448.354ZM314.362 329.757L309.431 315.591H309.431L314.362 329.757ZM319.275 322.977L334.275 322.977V322.977H319.275ZM319.275 231.001H334.275V216.001H319.275V231.001ZM307.285 231.001L307.285 246.001H307.285V231.001ZM297.286 221.001L282.286 220.999V221L297.286 221.001ZM307.287 211L307.287 196H307.287L307.287 211ZM419.728 211.001L419.727 226.001C416.965 226.001 414.726 223.762 414.727 221L429.727 221.001L444.727 221.002C444.727 207.195 433.535 196.002 419.728 196.001L419.728 211.001ZM429.727 221.001L414.727 220.999C414.727 218.24 416.963 216.002 419.725 216.002L419.726 231.002L419.726 246.002C433.534 246.001 444.725 234.807 444.727 221.003L429.727 221.001ZM419.726 231.002L419.727 216.002L405.377 216.001L405.376 231.001L405.375 246.001L419.725 246.002L419.726 231.002ZM405.376 231.001H390.376V323.203H405.376H420.376V231.001H405.376ZM405.376 323.203H390.376C390.376 332.937 396.682 341.085 405.26 344.116L410.257 329.973L415.254 315.83C418.06 316.821 420.376 319.59 420.376 323.203H405.376ZM410.257 329.973L405.26 344.116C451.285 360.378 483 401.361 483 448.354H498H513C513 387.162 471.807 335.811 415.254 315.83L410.257 329.973ZM498 448.354L483 448.353C483 508.982 429.858 559.935 362 559.936L362 574.936L362 589.936C444.363 589.935 513 527.542 513 448.354L498 448.354ZM362 574.936V559.936C294.142 559.936 241 508.983 241 448.353L226 448.354L211 448.354C211 527.542 279.637 589.936 362 589.936V574.936ZM226 448.354H241C241 401.174 272.971 360.049 319.294 343.923L314.362 329.757L309.431 315.591C252.524 335.401 211 386.914 211 448.354H226ZM314.362 329.757L319.294 343.923C327.919 340.92 334.275 332.75 334.275 322.977L319.275 322.977L304.275 322.976C304.276 319.349 306.609 316.573 309.431 315.591L314.362 329.757ZM319.275 322.977H334.275V231.001H319.275H304.275V322.977H319.275ZM319.275 231.001V216.001H307.285V231.001V246.001H319.275V231.001ZM307.285 231.001L307.285 216.001C310.048 216.001 312.286 218.241 312.286 221.002L297.286 221.001L282.286 221C282.286 234.806 293.477 246.001 307.285 246.001L307.285 231.001ZM297.286 221.001L312.286 221.003C312.286 223.761 310.05 226 307.287 226L307.287 211L307.287 196C293.479 196 282.288 207.195 282.286 220.999L297.286 221.001ZM307.287 211L307.287 226L419.727 226.001L419.728 211.001L419.728 196.001L307.287 196L307.287 211Z" fill="#7CC472" mask="url(#path-1-inside-1_33_56)"/>
<path d="M345.982 70.8555C358.649 63.0485 374.351 63.0486 387.018 70.8555L503.997 142.954L620.976 215.053C633.552 222.804 641 236.891 641 251.802V540.198C641 555.109 633.552 569.196 620.976 576.947L387.018 721.145C374.351 728.951 358.649 728.951 345.982 721.145L112.024 576.947C99.448 569.196 92.0001 555.109 92 540.198V251.802L92.0059 251.104C92.2345 236.453 99.6445 222.683 112.024 215.053L345.982 70.8555Z" stroke="#7CC472" stroke-width="20"/>
<path d="M132 521V265" stroke="#7CC472" stroke-width="20" stroke-linecap="round"/>
<path d="M586 249L377 117" stroke="#7CC472" stroke-width="20" stroke-linecap="round"/>
<path d="M377 672L586 542" stroke="#7CC472" stroke-width="20" stroke-linecap="round"/>
<mask id="path-7-outside-2_33_56" maskUnits="userSpaceOnUse" x="215" y="308" width="234" height="270" fill="black">
<rect fill="white" x="215" y="308" width="234" height="270"/>
<path d="M266.489 319C249.404 319 235.554 332.753 235.554 349.718C235.554 366.683 249.404 380.436 266.489 380.436C269.793 380.436 272.974 379.919 275.959 378.967C276.409 379.151 276.841 379.46 277.201 379.953C278.409 381.606 292.634 400.46 295.094 403.824C295.564 404.468 295.756 405.765 295.688 406.79C287.198 415.352 281.957 427.099 281.957 440.063C281.957 453.355 287.465 465.367 296.336 473.979C296.259 475.013 296.092 475.74 295.571 476.441C292.106 481.107 270.909 505.644 270.108 506.614C269.635 507.189 269.125 507.575 268.616 507.831C265.012 506.371 261.069 505.564 256.936 505.564C239.85 505.564 226 519.317 226 536.282C226 553.247 239.85 567 256.936 567C274.021 567 287.871 553.247 287.871 536.282C287.871 529.842 285.875 523.866 282.464 518.929C282.594 518.399 282.849 517.857 283.284 517.33C285.008 515.24 304.55 490.852 308.06 486.598C308.909 485.568 311.196 484.704 312.562 484.646C312.878 484.633 313.139 484.631 313.354 484.635C318.46 486.485 323.974 487.495 329.726 487.495C344.779 487.495 358.203 480.579 366.959 469.774C367.62 469.633 368.4 469.679 369.236 470.151C371.061 471.181 392.224 482.767 395.932 484.86C396.503 485.183 397.113 485.928 397.546 486.678C397.226 488.104 397.056 489.587 397.056 491.109C397.056 502.336 406.222 511.438 417.528 511.438C428.835 511.437 438 502.336 438 491.109C438 479.883 428.835 470.781 417.528 470.781C412.744 470.781 408.343 472.411 404.857 475.142C404.818 475.147 404.779 475.155 404.739 475.159L404.664 475.166C403.24 475.306 402.457 475.383 401.604 474.953C397.598 472.932 376.066 460.176 375.221 459.698C374.523 459.304 374.086 458.824 373.814 458.344C376.183 452.718 377.493 446.543 377.493 440.063C377.493 413.868 356.107 392.632 329.726 392.632C322.092 392.632 314.877 394.413 308.477 397.575L308.41 397.558C306.98 397.181 306.194 396.975 305.602 396.251C302.82 392.849 288.848 372.73 288.287 371.963C288.22 371.871 288.161 371.779 288.105 371.688C293.854 366.111 297.425 358.329 297.425 349.718C297.425 332.753 283.575 319 266.489 319Z"/>
</mask>
<path d="M266.489 319C249.404 319 235.554 332.753 235.554 349.718C235.554 366.683 249.404 380.436 266.489 380.436C269.793 380.436 272.974 379.919 275.959 378.967C276.409 379.151 276.841 379.46 277.201 379.953C278.409 381.606 292.634 400.46 295.094 403.824C295.564 404.468 295.756 405.765 295.688 406.79C287.198 415.352 281.957 427.099 281.957 440.063C281.957 453.355 287.465 465.367 296.336 473.979C296.259 475.013 296.092 475.74 295.571 476.441C292.106 481.107 270.909 505.644 270.108 506.614C269.635 507.189 269.125 507.575 268.616 507.831C265.012 506.371 261.069 505.564 256.936 505.564C239.85 505.564 226 519.317 226 536.282C226 553.247 239.85 567 256.936 567C274.021 567 287.871 553.247 287.871 536.282C287.871 529.842 285.875 523.866 282.464 518.929C282.594 518.399 282.849 517.857 283.284 517.33C285.008 515.24 304.55 490.852 308.06 486.598C308.909 485.568 311.196 484.704 312.562 484.646C312.878 484.633 313.139 484.631 313.354 484.635C318.46 486.485 323.974 487.495 329.726 487.495C344.779 487.495 358.203 480.579 366.959 469.774C367.62 469.633 368.4 469.679 369.236 470.151C371.061 471.181 392.224 482.767 395.932 484.86C396.503 485.183 397.113 485.928 397.546 486.678C397.226 488.104 397.056 489.587 397.056 491.109C397.056 502.336 406.222 511.438 417.528 511.438C428.835 511.437 438 502.336 438 491.109C438 479.883 428.835 470.781 417.528 470.781C412.744 470.781 408.343 472.411 404.857 475.142C404.818 475.147 404.779 475.155 404.739 475.159L404.664 475.166C403.24 475.306 402.457 475.383 401.604 474.953C397.598 472.932 376.066 460.176 375.221 459.698C374.523 459.304 374.086 458.824 373.814 458.344C376.183 452.718 377.493 446.543 377.493 440.063C377.493 413.868 356.107 392.632 329.726 392.632C322.092 392.632 314.877 394.413 308.477 397.575L308.41 397.558C306.98 397.181 306.194 396.975 305.602 396.251C302.82 392.849 288.848 372.73 288.287 371.963C288.22 371.871 288.161 371.779 288.105 371.688C293.854 366.111 297.425 358.329 297.425 349.718C297.425 332.753 283.575 319 266.489 319Z" fill="#0F703A"/>
<path d="M266.489 319V308V319ZM235.554 349.718L224.554 349.718V349.718H235.554ZM266.489 380.436V391.436V380.436ZM275.959 378.967L272.616 368.487L276.421 367.273L280.118 368.784L275.959 378.967ZM277.201 379.953L286.081 373.46L286.081 373.461L277.201 379.953ZM295.094 403.824L303.974 397.332L303.974 397.332L295.094 403.824ZM295.688 406.79L306.663 407.525L306.389 411.62L303.499 414.535L295.688 406.79ZM281.957 440.063H270.957V440.063L281.957 440.063ZM296.336 473.979L303.998 466.086L307.686 469.666L307.306 474.792L296.336 473.979ZM295.571 476.441L304.402 483.001L304.402 483.001L295.571 476.441ZM270.108 506.614L278.594 513.614L278.594 513.614L270.108 506.614ZM268.616 507.831L273.553 517.661L269.102 519.896L264.485 518.026L268.616 507.831ZM256.936 505.564L256.936 494.564H256.936V505.564ZM226 536.282H215V536.282L226 536.282ZM256.936 567V578H256.936L256.936 567ZM287.871 536.282L298.871 536.282V536.282H287.871ZM282.464 518.929L273.413 525.181L270.601 521.109L271.782 516.304L282.464 518.929ZM283.284 517.33L274.798 510.331L274.798 510.331L283.284 517.33ZM308.06 486.598L299.574 479.598L299.574 479.598L308.06 486.598ZM312.562 484.646L312.102 473.656H312.102L312.562 484.646ZM313.354 484.635L313.539 473.636L315.374 473.667L317.1 474.292L313.354 484.635ZM329.726 487.495L329.726 498.495H329.726V487.495ZM366.959 469.774L358.413 462.849L360.861 459.828L364.663 459.017L366.959 469.774ZM369.236 470.151L363.829 479.731L363.829 479.73L369.236 470.151ZM395.932 484.86L401.339 475.281H401.339L395.932 484.86ZM397.546 486.678L407.073 481.179L409.218 484.895L408.28 489.082L397.546 486.678ZM397.056 491.109L386.056 491.109V491.109H397.056ZM417.528 511.438L417.529 522.438H417.528V511.438ZM438 491.109H449V491.109L438 491.109ZM417.528 470.781V459.781H417.529L417.528 470.781ZM404.857 475.142L411.641 483.801L409.27 485.658L406.284 486.049L404.857 475.142ZM404.739 475.159L405.816 486.106L405.776 486.11L405.735 486.114L404.739 475.159ZM404.664 475.166L403.587 464.219L403.628 464.215L403.668 464.211L404.664 475.166ZM401.604 474.953L396.65 484.774L396.65 484.774L401.604 474.953ZM375.221 459.698L369.813 469.277L369.813 469.277L375.221 459.698ZM373.814 458.344L364.241 463.761L361.579 459.057L363.676 454.075L373.814 458.344ZM377.493 440.063L388.493 440.063V440.063H377.493ZM329.726 392.632V381.632H329.726L329.726 392.632ZM308.477 397.575L313.349 407.437L309.65 409.265L305.662 408.209L308.477 397.575ZM308.41 397.558L311.208 386.919L311.216 386.922L311.225 386.924L308.41 397.558ZM305.602 396.251L297.086 403.214L297.086 403.214L305.602 396.251ZM288.287 371.963L279.407 378.455L279.407 378.455L288.287 371.963ZM288.105 371.688L278.704 377.398L274.15 369.901L280.446 363.794L288.105 371.688ZM297.425 349.718H308.425V349.718L297.425 349.718ZM266.489 319V330C255.406 330 246.554 338.901 246.554 349.718H235.554H224.554C224.554 326.605 243.402 308 266.489 308V319ZM235.554 349.718L246.554 349.718C246.554 360.534 255.406 369.436 266.489 369.436V380.436V391.436C243.402 391.436 224.554 372.831 224.554 349.718L235.554 349.718ZM266.489 380.436V369.436C268.639 369.436 270.694 369.1 272.616 368.487L275.959 378.967L279.302 389.447C275.254 390.738 270.946 391.436 266.489 391.436V380.436ZM275.959 378.967L280.118 368.784C282.385 369.709 284.476 371.265 286.081 373.46L277.201 379.953L268.322 386.446C269.205 387.654 270.434 388.592 271.8 389.15L275.959 378.967ZM277.201 379.953L286.081 373.461C286.628 374.209 290.403 379.226 294.471 384.637C298.452 389.933 302.688 395.573 303.974 397.332L295.094 403.824L286.214 410.316C285.04 408.711 280.933 403.241 276.885 397.856C272.924 392.586 268.983 387.35 268.321 386.445L277.201 379.953ZM295.094 403.824L303.974 397.332C305.631 399.599 306.189 401.97 306.411 403.171C306.677 404.616 306.757 406.113 306.663 407.525L295.688 406.79L284.712 406.055C284.686 406.442 284.705 406.778 284.775 407.157C284.813 407.365 284.892 407.72 285.059 408.179C285.212 408.599 285.545 409.401 286.214 410.316L295.094 403.824ZM295.688 406.79L303.499 414.535C296.959 421.13 292.957 430.129 292.957 440.064L281.957 440.063L270.957 440.063C270.957 424.069 277.437 409.573 287.876 399.045L295.688 406.79ZM281.957 440.063H292.957C292.957 450.246 297.163 459.45 303.998 466.086L296.336 473.979L288.674 481.871C277.768 471.284 270.957 456.463 270.957 440.063H281.957ZM296.336 473.979L307.306 474.792C307.167 476.669 306.742 479.85 304.402 483.001L295.571 476.441L286.741 469.882C286.19 470.623 285.794 471.453 285.561 472.251C285.366 472.919 285.352 473.349 285.366 473.165L296.336 473.979ZM295.571 476.441L304.402 483.001C302.386 485.714 295.887 493.395 290.21 500.051C287.283 503.484 284.441 506.798 282.285 509.31C281.203 510.57 280.302 511.62 279.639 512.392C279.309 512.778 279.044 513.087 278.851 513.312C278.624 513.578 278.569 513.644 278.594 513.614L270.108 506.614L261.623 499.615C263.017 497.925 283.451 474.311 286.741 469.882L295.571 476.441ZM270.108 506.614L278.594 513.614C277.168 515.342 275.458 516.704 273.553 517.661L268.616 507.831L263.68 498.001C262.792 498.447 262.101 499.035 261.623 499.614L270.108 506.614ZM268.616 507.831L264.485 518.026C262.17 517.088 259.627 516.564 256.936 516.564V505.564V494.564C262.51 494.564 267.854 495.654 272.747 497.636L268.616 507.831ZM256.936 505.564L256.936 516.564C245.852 516.564 237 525.466 237 536.282L226 536.282L215 536.282C215 513.169 233.849 494.565 256.936 494.564L256.936 505.564ZM226 536.282H237C237 547.099 245.852 556 256.936 556L256.936 567L256.936 578C233.849 578 215 559.395 215 536.282H226ZM256.936 567V556C268.019 556 276.871 547.099 276.871 536.282H287.871H298.871C298.871 559.395 280.023 578 256.936 578V567ZM287.871 536.282L276.871 536.282C276.871 532.153 275.599 528.345 273.413 525.181L282.464 518.929L291.514 512.677C296.15 519.388 298.871 527.532 298.871 536.282L287.871 536.282ZM282.464 518.929L271.782 516.304C272.308 514.163 273.316 512.129 274.798 510.331L283.284 517.33L291.771 524.329C292.383 523.586 292.881 522.634 293.146 521.554L282.464 518.929ZM283.284 517.33L274.798 510.331C275.602 509.356 280.838 502.838 286.429 495.883C291.937 489.034 297.762 481.795 299.574 479.598L308.06 486.598L316.545 493.597C314.847 495.656 309.147 502.738 303.575 509.668C298.087 516.494 292.69 523.214 291.77 524.33L283.284 517.33ZM308.06 486.598L299.574 479.598C301.713 477.004 304.488 475.683 305.903 475.096C307.53 474.422 309.745 473.755 312.102 473.656L312.562 484.646L313.021 495.637C313.627 495.612 313.993 495.521 314.074 495.501C314.194 495.471 314.269 495.444 314.331 495.418C314.382 495.397 314.565 495.319 314.848 495.138C315.067 494.999 315.778 494.528 316.545 493.597L308.06 486.598ZM312.562 484.646L312.102 473.656C312.623 473.634 313.1 473.629 313.539 473.636L313.354 484.635L313.168 495.633C313.178 495.633 313.132 495.632 313.021 495.637L312.562 484.646ZM313.354 484.635L317.1 474.292C321.024 475.714 325.271 476.495 329.726 476.495V487.495V498.495C322.678 498.495 315.897 497.256 309.607 494.977L313.354 484.635ZM329.726 487.495L329.726 476.495C341.336 476.495 351.666 471.175 358.413 462.849L366.959 469.774L375.505 476.7C364.741 489.983 348.222 498.495 329.726 498.495L329.726 487.495ZM366.959 469.774L364.663 459.017C367.725 458.363 371.277 458.672 374.644 460.572L369.236 470.151L363.829 479.73C364.582 480.156 365.497 480.487 366.525 480.629C367.539 480.77 368.471 480.7 369.255 480.532L366.959 469.774ZM369.236 470.151L374.644 460.572C375.483 461.046 381.126 464.143 387.175 467.466C393.115 470.73 399.414 474.194 401.339 475.281L395.932 484.86L390.524 494.439C388.742 493.433 382.605 490.058 376.581 486.748C370.666 483.498 364.815 480.287 363.829 479.731L369.236 470.151ZM395.932 484.86L401.339 475.281C404.483 477.056 406.308 479.853 407.073 481.179L397.546 486.678L388.019 492.176C388.111 492.336 388.249 492.549 388.484 492.82C388.608 492.962 388.81 493.18 389.099 493.435C389.375 493.677 389.849 494.058 390.524 494.439L395.932 484.86ZM397.546 486.678L408.28 489.082C408.134 489.736 408.056 490.413 408.056 491.109H397.056H386.056C386.056 488.762 386.319 486.473 386.812 484.274L397.546 486.678ZM397.056 491.109L408.056 491.109C408.056 496.188 412.223 500.438 417.528 500.438V511.438V522.438C400.22 522.438 386.056 508.485 386.056 491.109L397.056 491.109ZM417.528 511.438L417.528 500.438C422.832 500.437 427 496.188 427 491.109L438 491.109L449 491.109C449 508.484 434.837 522.437 417.529 522.438L417.528 511.438ZM438 491.109H427C427 486.031 422.833 481.781 417.528 481.781L417.528 470.781L417.529 459.781C434.837 459.782 449 473.735 449 491.109H438ZM417.528 470.781V481.781C415.283 481.781 413.254 482.537 411.641 483.801L404.857 475.142L398.074 466.483C403.431 462.285 410.205 459.781 417.528 459.781V470.781ZM404.857 475.142L406.284 486.049C406.423 486.031 406.531 486.013 406.579 486.006C406.603 486.002 406.621 485.999 406.623 485.998C406.637 485.996 406.608 486.001 406.599 486.002C406.568 486.008 406.47 486.024 406.346 486.042C406.219 486.06 406.036 486.085 405.816 486.106L404.739 475.159L403.663 464.212C403.462 464.232 403.299 464.254 403.191 464.269C403.088 464.284 403.009 464.297 402.997 464.299C402.993 464.3 402.99 464.3 402.992 464.3C402.996 464.3 402.99 464.301 402.995 464.3C402.997 464.299 403 464.299 403.003 464.298C403.015 464.296 403.043 464.292 403.077 464.286C403.144 464.275 403.272 464.255 403.431 464.234L404.857 475.142ZM404.739 475.159L405.735 486.114L405.66 486.121L404.664 475.166L403.668 464.211L403.743 464.204L404.739 475.159ZM404.664 475.166L405.741 486.113C405.083 486.178 400.872 486.904 396.65 484.774L401.604 474.953L406.559 465.132C406.023 464.862 405.422 464.636 404.778 464.484C404.153 464.336 403.637 464.292 403.308 464.28C403.009 464.27 402.842 464.286 402.932 464.28C403.036 464.272 403.19 464.258 403.587 464.219L404.664 475.166ZM401.604 474.953L396.65 484.774C394.257 483.567 387.475 479.633 381.676 476.243C378.667 474.484 375.761 472.776 373.558 471.479C372.453 470.829 371.533 470.288 370.857 469.89C370.11 469.451 369.808 469.274 369.813 469.277L375.221 459.698L380.628 450.119C382.22 451.018 402.794 463.233 406.559 465.132L401.604 474.953ZM375.221 459.698L369.813 469.277C367.397 467.913 365.51 466.004 364.241 463.761L373.814 458.344L383.388 452.927C382.662 451.644 381.648 450.695 380.629 450.119L375.221 459.698ZM373.814 458.344L363.676 454.075C365.488 449.773 366.493 445.047 366.493 440.063H377.493H388.493C388.493 448.038 386.878 455.662 383.953 462.612L373.814 458.344ZM377.493 440.063L366.493 440.064C366.493 420.016 350.105 403.632 329.726 403.632L329.726 392.632L329.726 381.632C362.109 381.632 388.493 407.72 388.493 440.063L377.493 440.063ZM329.726 392.632V403.632C323.82 403.632 318.269 405.007 313.349 407.437L308.477 397.575L303.604 387.713C311.485 383.82 320.363 381.632 329.726 381.632V392.632ZM308.477 397.575L305.662 408.209L305.595 408.191L308.41 397.558L311.225 386.924L311.291 386.941L308.477 397.575ZM308.41 397.558L305.613 408.196C305.184 408.083 300.38 407.242 297.086 403.214L305.602 396.251L314.117 389.288C313.648 388.714 313.085 388.183 312.449 387.733C311.835 387.298 311.295 387.038 310.959 386.896C310.651 386.767 310.466 386.717 310.555 386.744C310.656 386.773 310.807 386.814 311.208 386.919L308.41 397.558ZM305.602 396.251L297.086 403.214C295.375 401.121 290.883 394.797 287.119 389.454C285.153 386.664 283.259 383.959 281.825 381.909C281.105 380.879 280.507 380.025 280.067 379.396C279.572 378.689 279.39 378.432 279.407 378.455L288.287 371.963L297.167 365.471C297.518 365.951 301.328 371.424 305.104 376.783C309.162 382.543 313.047 387.979 314.118 389.288L305.602 396.251ZM288.287 371.963L279.407 378.455C279.104 378.04 278.869 377.671 278.704 377.398L288.105 371.688L297.507 365.979C297.452 365.888 297.337 365.703 297.167 365.471L288.287 371.963ZM288.105 371.688L280.446 363.794C284.158 360.192 286.425 355.219 286.425 349.718L297.425 349.718L308.425 349.718C308.425 361.439 303.55 372.03 295.765 379.583L288.105 371.688ZM297.425 349.718H286.425C286.425 338.901 277.573 330 266.489 330V319V308C289.576 308 308.425 326.605 308.425 349.718H297.425Z" fill="white" mask="url(#path-7-outside-2_33_56)"/>
</svg>
