<svg xmlns="http://www.w3.org/2000/svg" xmlns:xlink="http://www.w3.org/1999/xlink" width="1080" zoomAndPan="magnify" viewBox="0 0 810 1012.49997" height="1350" preserveAspectRatio="xMidYMid meet" version="1.0"><defs><clipPath id="06523c0f74"><path d="M 29.820312 229 L 663 229 L 663 804 L 29.820312 804 Z M 29.820312 229 " clip-rule="nonzero"/></clipPath></defs><path fill="#0f703a" d="M 778.167969 417.503906 C 778.167969 417.503906 724.765625 220.171875 724.683594 219.871094 C 724.511719 219.285156 724.304688 218.707031 724.070312 218.140625 C 723.835938 217.574219 723.570312 217.023438 723.277344 216.488281 C 722.984375 215.949219 722.660156 215.429688 722.3125 214.925781 C 721.960938 214.425781 721.585938 213.941406 721.183594 213.480469 C 720.78125 213.015625 720.359375 212.574219 719.910156 212.160156 C 719.460938 211.742188 718.992188 211.351562 718.5 210.984375 C 718.011719 210.617188 717.503906 210.277344 716.976562 209.964844 C 716.449219 209.652344 715.90625 209.367188 715.351562 209.113281 C 714.792969 208.859375 714.222656 208.632812 713.644531 208.441406 C 713.0625 208.246094 712.472656 208.082031 711.875 207.953125 C 711.277344 207.820312 710.671875 207.722656 710.0625 207.65625 C 709.453125 207.589844 708.84375 207.558594 708.230469 207.558594 C 707.617188 207.554688 707.007812 207.589844 706.398438 207.652344 C 705.789062 207.71875 705.1875 207.8125 704.585938 207.941406 C 703.988281 208.074219 703.398438 208.234375 702.816406 208.425781 C 702.234375 208.617188 701.664062 208.839844 701.109375 209.09375 L 642.640625 237.25 C 637.730469 238.9375 632.691406 240.042969 627.527344 240.566406 C 622.363281 241.089844 617.207031 241.015625 612.058594 240.347656 C 578.644531 235.535156 478.234375 220.671875 446.085938 218.660156 C 442.675781 218.304688 439.269531 218.296875 435.859375 218.644531 C 432.449219 218.988281 429.113281 219.675781 425.84375 220.707031 C 422.574219 221.738281 419.449219 223.09375 416.457031 224.765625 C 413.46875 226.441406 410.679688 228.402344 408.09375 230.648438 L 338.445312 291.003906 C 318.335938 306.824219 297.929688 325.1875 298.835938 353.109375 L 298.835938 450.511719 C 298.839844 461.03125 315.210938 461.71875 322.144531 460.34375 C 363.527344 452.15625 380.277344 412.101562 384.652344 369.277344 C 384.828125 354.582031 405.53125 329.699219 420.757812 340.175781 L 631.863281 520.566406 L 694.238281 457.515625 C 692.230469 455.203125 764.6875 438.992188 766.042969 438.25 C 766.585938 438.113281 767.117188 437.953125 767.640625 437.761719 C 768.167969 437.574219 768.679688 437.359375 769.183594 437.117188 C 769.6875 436.878906 770.179688 436.613281 770.65625 436.324219 C 771.132812 436.035156 771.59375 435.722656 772.039062 435.386719 C 772.484375 435.050781 772.914062 434.695312 773.324219 434.316406 C 773.734375 433.9375 774.125 433.542969 774.496094 433.125 C 774.867188 432.707031 775.21875 432.273438 775.546875 431.824219 C 775.875 431.371094 776.179688 430.90625 776.460938 430.421875 C 776.742188 429.941406 777 429.445312 777.230469 428.941406 C 777.464844 428.433594 777.667969 427.914062 777.851562 427.386719 C 778.03125 426.859375 778.1875 426.324219 778.3125 425.78125 C 778.441406 425.238281 778.542969 424.6875 778.613281 424.136719 C 778.6875 423.582031 778.734375 423.027344 778.75 422.46875 C 778.769531 421.910156 778.757812 421.355469 778.722656 420.796875 C 778.683594 420.242188 778.617188 419.6875 778.527344 419.136719 C 778.433594 418.585938 778.3125 418.042969 778.167969 417.503906 Z M 778.167969 417.503906 " fill-opacity="1" fill-rule="nonzero"/><path fill="#0f703a" d="M 200.222656 518.140625 C 199.617188 517.609375 198.988281 517.109375 198.335938 516.636719 C 197.679688 516.167969 197.007812 515.730469 196.308594 515.328125 C 195.613281 514.921875 194.898438 514.554688 194.167969 514.21875 C 193.4375 513.886719 192.691406 513.585938 191.929688 513.324219 C 191.167969 513.0625 190.394531 512.839844 189.613281 512.652344 C 188.828125 512.464844 188.039062 512.316406 187.242188 512.207031 C 186.445312 512.097656 185.644531 512.027344 184.839844 511.996094 C 184.035156 511.964844 183.230469 511.972656 182.429688 512.019531 C 181.625 512.066406 180.824219 512.152344 180.03125 512.277344 C 179.234375 512.402344 178.449219 512.5625 177.667969 512.765625 C 176.890625 512.964844 176.121094 513.207031 175.367188 513.480469 C 174.609375 513.757812 173.871094 514.070312 173.144531 514.417969 C 172.417969 514.765625 171.710938 515.148438 171.023438 515.566406 C 170.335938 515.984375 169.667969 516.433594 169.023438 516.914062 C 168.378906 517.394531 167.757812 517.910156 167.164062 518.449219 C 166.570312 518.992188 166.003906 519.5625 165.464844 520.160156 C 165.464844 520.160156 137.144531 551.925781 135.828125 553.433594 C 135.300781 554.039062 134.808594 554.667969 134.347656 555.320312 C 133.886719 555.972656 133.457031 556.644531 133.058594 557.339844 C 132.660156 558.035156 132.300781 558.746094 131.972656 559.476562 C 131.644531 560.203125 131.355469 560.949219 131.097656 561.707031 C 130.84375 562.464844 130.625 563.230469 130.445312 564.011719 C 130.265625 564.789062 130.125 565.574219 130.019531 566.367188 C 129.917969 567.160156 129.851562 567.957031 129.828125 568.757812 C 129.800781 569.554688 129.8125 570.355469 129.863281 571.152344 C 129.917969 571.949219 130.007812 572.742188 130.136719 573.53125 C 130.265625 574.320312 130.433594 575.101562 130.636719 575.875 C 130.84375 576.648438 131.085938 577.40625 131.363281 578.15625 C 131.644531 578.90625 131.957031 579.640625 132.308594 580.359375 C 132.660156 581.078125 133.042969 581.777344 133.464844 582.457031 C 133.882812 583.140625 134.332031 583.796875 134.816406 584.433594 C 135.300781 585.070312 135.8125 585.683594 136.355469 586.269531 C 136.898438 586.859375 137.46875 587.417969 138.066406 587.949219 C 138.664062 588.480469 139.285156 588.980469 139.929688 589.453125 C 140.574219 589.925781 141.242188 590.363281 141.933594 590.769531 C 142.621094 591.175781 143.328125 591.546875 144.054688 591.882812 C 144.777344 592.21875 145.515625 592.519531 146.273438 592.785156 C 147.027344 593.050781 147.792969 593.277344 148.566406 593.46875 C 149.34375 593.660156 150.128906 593.8125 150.917969 593.925781 C 151.710938 594.039062 152.503906 594.117188 153.304688 594.152344 C 154.101562 594.191406 154.902344 594.1875 155.699219 594.144531 C 156.5 594.105469 157.292969 594.027344 158.082031 593.90625 C 158.875 593.789062 159.65625 593.632812 160.433594 593.4375 C 161.207031 593.242188 161.972656 593.011719 162.726562 592.742188 C 163.476562 592.472656 164.214844 592.167969 164.9375 591.824219 C 165.664062 591.484375 166.367188 591.109375 167.054688 590.699219 C 167.738281 590.289062 168.40625 589.847656 169.046875 589.375 C 169.691406 588.898438 170.3125 588.394531 170.90625 587.859375 C 171.5 587.324219 172.066406 586.761719 172.605469 586.171875 L 202.242188 552.898438 C 202.777344 552.292969 203.28125 551.667969 203.753906 551.015625 C 204.226562 550.363281 204.664062 549.6875 205.070312 548.992188 C 205.480469 548.296875 205.851562 547.582031 206.1875 546.851562 C 206.523438 546.117188 206.824219 545.371094 207.089844 544.609375 C 207.351562 543.847656 207.578125 543.078125 207.765625 542.292969 C 207.953125 541.507812 208.101562 540.71875 208.214844 539.921875 C 208.324219 539.121094 208.394531 538.320312 208.425781 537.515625 C 208.460938 536.710938 208.453125 535.90625 208.40625 535.101562 C 208.359375 534.296875 208.273438 533.496094 208.148438 532.699219 C 208.023438 531.90625 207.859375 531.117188 207.65625 530.335938 C 207.453125 529.558594 207.214844 528.789062 206.9375 528.03125 C 206.660156 527.277344 206.34375 526.535156 205.996094 525.808594 C 205.644531 525.082031 205.261719 524.375 204.839844 523.6875 C 204.421875 523 203.96875 522.335938 203.484375 521.691406 C 203 521.046875 202.484375 520.429688 201.941406 519.835938 C 201.394531 519.242188 200.824219 518.675781 200.222656 518.140625 Z M 200.222656 518.140625 " fill-opacity="1" fill-rule="nonzero"/><path fill="#0f703a" d="M 239.964844 540.90625 C 227.320312 555.113281 181.957031 606.183594 181.902344 606.246094 C 181.335938 606.90625 180.804688 607.59375 180.3125 608.304688 C 179.816406 609.019531 179.363281 609.757812 178.945312 610.519531 C 178.53125 611.285156 178.15625 612.066406 177.820312 612.867188 C 177.484375 613.667969 177.191406 614.484375 176.945312 615.316406 C 176.695312 616.148438 176.488281 616.992188 176.328125 617.84375 C 176.167969 618.699219 176.050781 619.558594 175.980469 620.421875 C 175.910156 621.289062 175.882812 622.15625 175.902344 623.023438 C 175.921875 623.890625 175.988281 624.757812 176.097656 625.617188 C 176.207031 626.480469 176.359375 627.332031 176.558594 628.179688 C 176.757812 629.023438 177.003906 629.855469 177.289062 630.675781 C 177.574219 631.496094 177.902344 632.300781 178.273438 633.085938 C 178.644531 633.871094 179.054688 634.636719 179.503906 635.378906 C 179.957031 636.121094 180.441406 636.835938 180.96875 637.527344 C 181.492188 638.222656 182.054688 638.882812 182.648438 639.515625 C 183.242188 640.148438 183.871094 640.75 184.527344 641.316406 C 185.183594 641.882812 185.871094 642.417969 186.582031 642.910156 C 187.296875 643.40625 188.03125 643.863281 188.792969 644.285156 C 189.554688 644.703125 190.335938 645.082031 191.136719 645.417969 C 191.9375 645.753906 192.75 646.050781 193.582031 646.300781 C 194.414062 646.550781 195.257812 646.761719 196.109375 646.921875 C 196.960938 647.085938 197.820312 647.207031 198.6875 647.28125 C 199.550781 647.355469 200.417969 647.382812 201.289062 647.363281 C 202.15625 647.347656 203.019531 647.285156 203.882812 647.179688 C 204.746094 647.070312 205.597656 646.917969 206.445312 646.722656 C 207.289062 646.523438 208.125 646.285156 208.945312 646 C 209.765625 645.714844 210.570312 645.390625 211.355469 645.023438 C 212.140625 644.65625 212.90625 644.246094 213.652344 643.796875 C 214.394531 643.351562 215.113281 642.863281 215.808594 642.339844 C 216.5 641.816406 217.164062 641.257812 217.800781 640.667969 C 218.433594 640.074219 219.035156 639.449219 219.605469 638.792969 C 220.175781 638.136719 220.707031 637.453125 221.207031 636.742188 C 221.703125 636.03125 222.164062 635.296875 222.585938 634.535156 C 228.207031 628.257812 272.375 578.585938 276.742188 573.777344 C 277.265625 573.175781 277.761719 572.546875 278.226562 571.894531 C 278.6875 571.242188 279.117188 570.566406 279.515625 569.871094 C 279.914062 569.179688 280.277344 568.464844 280.605469 567.734375 C 280.933594 567.007812 281.226562 566.261719 281.484375 565.503906 C 281.738281 564.746094 281.957031 563.976562 282.140625 563.195312 C 282.320312 562.417969 282.464844 561.632812 282.570312 560.835938 C 282.671875 560.042969 282.738281 559.246094 282.765625 558.449219 C 282.792969 557.648438 282.78125 556.847656 282.730469 556.050781 C 282.679688 555.25 282.59375 554.457031 282.464844 553.664062 C 282.335938 552.875 282.171875 552.09375 281.964844 551.320312 C 281.761719 550.546875 281.519531 549.785156 281.242188 549.03125 C 280.964844 548.28125 280.648438 547.546875 280.300781 546.828125 C 279.949219 546.109375 279.566406 545.40625 279.148438 544.722656 C 278.730469 544.042969 278.28125 543.382812 277.796875 542.742188 C 277.316406 542.105469 276.804688 541.488281 276.261719 540.902344 C 275.71875 540.3125 275.148438 539.75 274.550781 539.21875 C 273.957031 538.683594 273.335938 538.179688 272.6875 537.707031 C 272.042969 537.234375 271.375 536.796875 270.6875 536.386719 C 270 535.980469 269.292969 535.605469 268.566406 535.265625 C 267.839844 534.925781 267.101562 534.625 266.347656 534.355469 C 265.59375 534.089844 264.828125 533.859375 264.050781 533.667969 C 263.273438 533.476562 262.488281 533.320312 261.695312 533.203125 C 260.90625 533.089844 260.109375 533.011719 259.308594 532.972656 C 258.511719 532.933594 257.710938 532.933594 256.910156 532.972656 C 256.113281 533.011719 255.316406 533.089844 254.523438 533.207031 C 253.734375 533.320312 252.949219 533.476562 252.171875 533.667969 C 251.394531 533.863281 250.628906 534.09375 249.875 534.359375 C 249.121094 534.628906 248.378906 534.929688 247.65625 535.269531 C 246.929688 535.609375 246.222656 535.984375 245.535156 536.390625 C 244.847656 536.800781 244.179688 537.242188 243.535156 537.714844 C 242.890625 538.1875 242.269531 538.691406 241.671875 539.222656 C 241.074219 539.757812 240.503906 540.320312 239.964844 540.90625 Z M 239.964844 540.90625 " fill-opacity="1" fill-rule="nonzero"/><path fill="#0f703a" d="M 300.71875 588.058594 C 299.101562 588.136719 297.507812 588.378906 295.9375 588.78125 C 294.371094 589.179688 292.855469 589.734375 291.398438 590.441406 C 289.941406 591.144531 288.566406 591.988281 287.277344 592.972656 C 285.992188 593.957031 284.8125 595.058594 283.75 596.277344 L 237.671875 648.007812 C 237.140625 648.613281 236.636719 649.238281 236.164062 649.890625 C 235.6875 650.542969 235.25 651.214844 234.84375 651.910156 C 234.4375 652.605469 234.0625 653.320312 233.726562 654.050781 C 233.390625 654.785156 233.089844 655.53125 232.828125 656.289062 C 232.5625 657.050781 232.335938 657.824219 232.148438 658.605469 C 231.960938 659.390625 231.8125 660.179688 231.703125 660.980469 C 231.59375 661.777344 231.523438 662.578125 231.492188 663.382812 C 231.457031 664.1875 231.464844 664.992188 231.515625 665.796875 C 231.5625 666.601562 231.648438 667.398438 231.773438 668.195312 C 231.898438 668.992188 232.066406 669.777344 232.269531 670.558594 C 232.472656 671.335938 232.710938 672.105469 232.992188 672.859375 C 233.269531 673.617188 233.582031 674.355469 233.933594 675.082031 C 234.285156 675.804688 234.671875 676.511719 235.09375 677.199219 C 235.511719 677.886719 235.964844 678.550781 236.453125 679.191406 C 236.9375 679.835938 237.453125 680.453125 238 681.042969 C 238.546875 681.636719 239.121094 682.199219 239.722656 682.734375 C 240.324219 683.269531 240.949219 683.777344 241.601562 684.25 C 242.253906 684.722656 242.925781 685.164062 243.621094 685.574219 C 244.3125 685.980469 245.027344 686.355469 245.757812 686.691406 C 246.488281 687.03125 247.234375 687.332031 247.996094 687.597656 C 248.757812 687.863281 249.527344 688.089844 250.3125 688.277344 C 251.09375 688.464844 251.882812 688.617188 252.683594 688.726562 C 253.480469 688.839844 254.28125 688.914062 255.085938 688.945312 C 255.890625 688.976562 256.695312 688.972656 257.5 688.925781 C 258.304688 688.878906 259.101562 688.792969 259.898438 688.667969 C 260.695312 688.542969 261.480469 688.382812 262.261719 688.179688 C 263.042969 687.976562 263.808594 687.738281 264.566406 687.460938 C 265.320312 687.183594 266.0625 686.871094 266.789062 686.519531 C 267.511719 686.171875 268.21875 685.785156 268.90625 685.367188 C 269.59375 684.945312 270.261719 684.496094 270.90625 684.011719 C 271.546875 683.523438 272.164062 683.011719 272.757812 682.464844 C 273.351562 681.917969 273.914062 681.347656 274.453125 680.746094 C 276.003906 679.035156 320.527344 629.015625 320.527344 629.015625 C 321.3125 628.101562 322.027344 627.140625 322.671875 626.125 C 323.320312 625.113281 323.886719 624.054688 324.378906 622.957031 C 324.871094 621.859375 325.28125 620.734375 325.609375 619.578125 C 325.9375 618.417969 326.179688 617.246094 326.335938 616.054688 C 326.492188 614.859375 326.5625 613.664062 326.542969 612.460938 C 326.527344 611.257812 326.421875 610.0625 326.230469 608.875 C 326.039062 607.691406 325.761719 606.523438 325.402344 605.375 C 325.039062 604.230469 324.597656 603.113281 324.074219 602.03125 C 323.550781 600.949219 322.953125 599.910156 322.277344 598.914062 C 321.601562 597.917969 320.859375 596.976562 320.046875 596.089844 C 319.234375 595.203125 318.363281 594.378906 317.433594 593.621094 C 316.5 592.859375 315.519531 592.171875 314.488281 591.554688 C 313.453125 590.933594 312.382812 590.394531 311.273438 589.933594 C 310.164062 589.472656 309.023438 589.09375 307.859375 588.796875 C 306.695312 588.503906 305.511719 588.292969 304.316406 588.167969 C 303.121094 588.046875 301.921875 588.007812 300.71875 588.058594 Z M 300.71875 588.058594 " fill-opacity="1" fill-rule="nonzero"/><path fill="#0f703a" d="M 344.507812 667.273438 C 343.945312 666.78125 343.363281 666.316406 342.757812 665.882812 C 342.152344 665.445312 341.53125 665.039062 340.886719 664.664062 C 340.242188 664.285156 339.582031 663.941406 338.90625 663.628906 C 338.226562 663.316406 337.539062 663.035156 336.835938 662.789062 C 336.128906 662.542969 335.417969 662.328125 334.691406 662.152344 C 333.96875 661.972656 333.238281 661.828125 332.5 661.71875 C 331.761719 661.613281 331.019531 661.539062 330.277344 661.503906 C 329.53125 661.464844 328.785156 661.464844 328.042969 661.496094 C 327.296875 661.53125 326.554688 661.601562 325.816406 661.707031 C 325.078125 661.8125 324.347656 661.953125 323.621094 662.128906 C 322.898438 662.304688 322.183594 662.511719 321.476562 662.757812 C 320.773438 663 320.082031 663.277344 319.402344 663.585938 C 318.726562 663.898438 318.0625 664.238281 317.417969 664.613281 C 316.773438 664.988281 316.148438 665.390625 315.539062 665.824219 C 314.933594 666.257812 314.347656 666.71875 313.789062 667.207031 C 313.226562 667.699219 312.6875 668.214844 312.175781 668.753906 L 291.832031 691.65625 C 291.097656 692.597656 290.4375 693.582031 289.84375 694.617188 C 289.25 695.648438 288.734375 696.71875 288.296875 697.824219 C 287.855469 698.933594 287.5 700.066406 287.21875 701.222656 C 286.941406 702.382812 286.75 703.554688 286.636719 704.738281 C 286.527344 705.925781 286.5 707.113281 286.558594 708.300781 C 286.621094 709.492188 286.761719 710.671875 286.988281 711.839844 C 287.214844 713.007812 287.527344 714.15625 287.917969 715.28125 C 288.308594 716.40625 288.777344 717.496094 289.324219 718.554688 C 289.871094 719.613281 290.488281 720.628906 291.179688 721.597656 C 291.871094 722.566406 292.628906 723.484375 293.449219 724.34375 C 294.273438 725.207031 295.152344 726.003906 296.085938 726.742188 C 297.023438 727.476562 298.007812 728.144531 299.039062 728.738281 C 300.070312 729.335938 301.136719 729.855469 302.242188 730.296875 C 303.347656 730.742188 304.480469 731.105469 305.636719 731.386719 C 306.792969 731.667969 307.964844 731.867188 309.148438 731.980469 C 310.335938 732.097656 311.523438 732.128906 312.714844 732.074219 C 314.941406 731.773438 317.109375 731.230469 319.21875 730.453125 C 321.324219 729.671875 323.324219 728.667969 325.210938 727.445312 C 327.097656 726.222656 328.828125 724.808594 330.398438 723.203125 C 331.972656 721.597656 333.351562 719.839844 334.535156 717.929688 L 348.683594 701.894531 C 349.21875 701.277344 349.71875 700.632812 350.1875 699.960938 C 350.65625 699.289062 351.085938 698.59375 351.484375 697.878906 C 351.878906 697.160156 352.234375 696.425781 352.554688 695.671875 C 352.875 694.917969 353.152344 694.148438 353.390625 693.367188 C 353.628906 692.582031 353.828125 691.789062 353.984375 690.988281 C 354.140625 690.183594 354.253906 689.375 354.328125 688.558594 C 354.398438 687.742188 354.429688 686.925781 354.414062 686.109375 C 354.402344 685.289062 354.347656 684.472656 354.246094 683.660156 C 354.148438 682.847656 354.011719 682.042969 353.828125 681.246094 C 353.644531 680.449219 353.421875 679.660156 353.160156 678.886719 C 352.894531 678.113281 352.59375 677.351562 352.25 676.609375 C 351.90625 675.867188 351.527344 675.140625 351.109375 674.4375 C 350.6875 673.734375 350.234375 673.054688 349.746094 672.398438 C 349.257812 671.742188 348.734375 671.113281 348.179688 670.511719 C 347.625 669.910156 347.042969 669.339844 346.429688 668.796875 C 345.8125 668.253906 345.171875 667.746094 344.507812 667.273438 Z M 344.507812 667.273438 " fill-opacity="1" fill-rule="nonzero"/><g clip-path="url(#06523c0f74)"><path fill="#0f703a" d="M 412 359.167969 C 410.019531 360.707031 408.402344 362.558594 407.144531 364.726562 C 405.886719 366.894531 405.078125 369.21875 404.726562 371.699219 C 400.222656 422.84375 375.5 471.710938 324.972656 480.285156 C 299.585938 485.355469 279.292969 469.640625 278.628906 451.046875 L 278.628906 353.109375 C 278.628906 350.359375 278.773438 347.613281 279.054688 344.878906 C 279.335938 342.144531 279.753906 339.429688 280.3125 336.734375 C 280.871094 334.042969 281.566406 331.382812 282.394531 328.761719 C 283.226562 326.140625 284.1875 323.566406 285.277344 321.042969 C 286.371094 318.515625 287.585938 316.054688 288.929688 313.65625 C 290.273438 311.253906 291.734375 308.929688 293.3125 306.675781 C 294.894531 304.425781 296.585938 302.261719 298.386719 300.183594 C 300.1875 298.101562 302.085938 296.121094 304.089844 294.234375 L 237.671875 294.234375 C 235.613281 294.214844 233.726562 293.628906 232.015625 292.484375 L 143.503906 232.265625 C 143 231.933594 142.480469 231.632812 141.945312 231.355469 C 141.410156 231.078125 140.859375 230.832031 140.296875 230.613281 C 139.738281 230.398438 139.164062 230.210938 138.582031 230.050781 C 138 229.894531 137.414062 229.769531 136.816406 229.675781 C 136.222656 229.582031 135.625 229.515625 135.023438 229.488281 C 134.417969 229.457031 133.816406 229.457031 133.214844 229.488281 C 132.613281 229.523438 132.015625 229.585938 131.421875 229.683594 C 130.824219 229.78125 130.238281 229.90625 129.65625 230.066406 C 129.074219 230.226562 128.503906 230.414062 127.941406 230.632812 C 127.382812 230.851562 126.832031 231.101562 126.296875 231.378906 C 125.761719 231.65625 125.246094 231.960938 124.742188 232.296875 C 124.238281 232.628906 123.757812 232.984375 123.292969 233.371094 C 122.828125 233.753906 122.382812 234.160156 121.964844 234.59375 C 121.542969 235.023438 121.144531 235.476562 120.773438 235.949219 C 120.398438 236.421875 120.050781 236.914062 119.730469 237.425781 C 119.410156 237.933594 119.117188 238.460938 118.851562 239 L 31.554688 419.792969 C 31.304688 420.3125 31.078125 420.839844 30.882812 421.382812 C 30.6875 421.921875 30.519531 422.46875 30.378906 423.027344 C 30.238281 423.585938 30.128906 424.148438 30.046875 424.71875 C 29.964844 425.285156 29.910156 425.859375 29.886719 426.433594 C 29.863281 427.007812 29.871094 427.582031 29.90625 428.152344 C 29.941406 428.726562 30.007812 429.296875 30.101562 429.867188 C 30.195312 430.433594 30.320312 430.992188 30.472656 431.546875 C 30.625 432.101562 30.804688 432.648438 31.011719 433.183594 C 31.21875 433.71875 31.453125 434.242188 31.714844 434.753906 C 31.976562 435.265625 32.265625 435.761719 32.578125 436.246094 C 32.890625 436.726562 33.226562 437.191406 33.589844 437.640625 C 33.949219 438.085938 34.332031 438.515625 34.738281 438.921875 C 35.140625 439.332031 35.566406 439.71875 36.011719 440.082031 C 36.457031 440.445312 36.917969 440.785156 37.398438 441.105469 C 37.875 441.421875 38.371094 441.710938 38.878906 441.980469 C 39.390625 442.246094 39.910156 442.484375 40.445312 442.695312 L 122.085938 475.433594 C 123.332031 475.917969 124.4375 476.628906 125.394531 477.566406 C 126.355469 478.5 127.09375 479.585938 127.609375 480.824219 L 142.5625 515.445312 L 150.378906 506.6875 C 151.734375 505.207031 153.179688 503.820312 154.722656 502.53125 C 156.261719 501.242188 157.882812 500.0625 159.582031 498.988281 C 161.277344 497.914062 163.042969 496.960938 164.867188 496.121094 C 166.695312 495.285156 168.566406 494.574219 170.488281 493.988281 C 172.410156 493.402344 174.363281 492.945312 176.34375 492.617188 C 178.328125 492.292969 180.324219 492.101562 182.332031 492.042969 C 184.339844 491.980469 186.34375 492.058594 188.339844 492.265625 C 190.339844 492.472656 192.316406 492.816406 194.265625 493.289062 C 196.21875 493.761719 198.132812 494.363281 200.003906 495.089844 C 201.878906 495.816406 203.691406 496.667969 205.453125 497.640625 C 207.210938 498.609375 208.894531 499.695312 210.511719 500.890625 C 212.125 502.085938 213.652344 503.386719 215.089844 504.785156 C 216.53125 506.1875 217.871094 507.675781 219.113281 509.257812 C 220.355469 510.835938 221.484375 512.492188 222.503906 514.222656 C 223.523438 515.953125 224.425781 517.746094 225.203125 519.597656 C 225.984375 521.449219 226.640625 523.34375 227.164062 525.28125 C 228.167969 524.300781 229.210938 523.371094 230.296875 522.488281 C 231.386719 521.605469 232.511719 520.773438 233.679688 519.996094 C 234.84375 519.21875 236.042969 518.5 237.277344 517.835938 C 238.511719 517.171875 239.773438 516.566406 241.0625 516.023438 C 242.351562 515.476562 243.664062 514.992188 245 514.570312 C 246.335938 514.148438 247.691406 513.789062 249.058594 513.496094 C 250.429688 513.199219 251.808594 512.96875 253.199219 512.804688 C 254.589844 512.640625 255.988281 512.539062 257.386719 512.503906 C 258.789062 512.472656 260.1875 512.503906 261.585938 512.601562 C 262.980469 512.699219 264.371094 512.859375 265.753906 513.089844 C 267.136719 513.316406 268.503906 513.609375 269.859375 513.964844 C 271.214844 514.324219 272.550781 514.742188 273.863281 515.226562 C 275.179688 515.707031 276.46875 516.25 277.734375 516.851562 C 278.996094 517.457031 280.230469 518.117188 281.433594 518.835938 C 282.636719 519.554688 283.800781 520.332031 284.929688 521.160156 C 286.058594 521.988281 287.148438 522.867188 288.195312 523.800781 C 289.695312 525.148438 291.097656 526.585938 292.40625 528.121094 C 293.714844 529.65625 294.914062 531.269531 296.003906 532.964844 C 297.097656 534.660156 298.074219 536.417969 298.929688 538.242188 C 299.789062 540.066406 300.519531 541.941406 301.128906 543.863281 C 301.734375 545.785156 302.210938 547.742188 302.558594 549.726562 C 302.90625 551.710938 303.117188 553.710938 303.199219 555.726562 C 303.277344 557.742188 303.222656 559.753906 303.035156 561.757812 C 302.84375 563.765625 302.523438 565.753906 302.070312 567.71875 C 304.191406 567.746094 306.300781 567.925781 308.398438 568.253906 C 310.496094 568.578125 312.558594 569.050781 314.589844 569.671875 C 316.621094 570.289062 318.597656 571.046875 320.523438 571.941406 C 322.445312 572.839844 324.296875 573.867188 326.078125 575.023438 C 327.855469 576.183594 329.546875 577.460938 331.144531 578.855469 C 332.742188 580.25 334.238281 581.75 335.625 583.359375 C 337.011719 584.964844 338.28125 586.660156 339.429688 588.445312 C 340.578125 590.230469 341.597656 592.085938 342.484375 594.015625 C 343.371094 595.941406 344.117188 597.925781 344.726562 599.957031 C 345.332031 601.992188 345.796875 604.058594 346.113281 606.15625 C 346.429688 608.253906 346.597656 610.367188 346.617188 612.488281 C 346.632812 614.613281 346.503906 616.726562 346.226562 618.828125 C 345.945312 620.933594 345.523438 623.007812 344.953125 625.050781 C 344.378906 627.097656 343.667969 629.089844 342.816406 631.035156 C 341.964844 632.980469 340.980469 634.855469 339.863281 636.660156 C 338.746094 638.464844 337.511719 640.183594 336.152344 641.8125 C 369.375 646.636719 387.746094 689.910156 363.769531 715.371094 L 355.824219 724.261719 L 442.582031 797.277344 C 444.003906 798.351562 445.5 799.300781 447.078125 800.132812 C 448.652344 800.960938 450.285156 801.65625 451.976562 802.222656 C 453.664062 802.785156 455.386719 803.207031 457.148438 803.492188 C 458.90625 803.773438 460.675781 803.914062 462.457031 803.90625 C 464.234375 803.902344 466.003906 803.753906 467.761719 803.460938 C 469.519531 803.167969 471.238281 802.734375 472.925781 802.160156 C 474.613281 801.589844 476.238281 800.882812 477.8125 800.046875 C 479.382812 799.207031 480.875 798.246094 482.289062 797.164062 C 483.707031 796.085938 485.023438 794.894531 486.246094 793.601562 C 487.46875 792.304688 488.574219 790.917969 489.570312 789.441406 C 490.566406 787.964844 491.4375 786.417969 492.183594 784.800781 C 492.925781 783.183594 493.535156 781.515625 494.007812 779.796875 C 494.480469 778.082031 494.8125 776.339844 495 774.566406 C 495.1875 772.796875 495.234375 771.023438 495.132812 769.242188 C 495.035156 767.464844 494.789062 765.707031 494.402344 763.96875 C 494.019531 762.230469 493.492188 760.535156 492.832031 758.882812 L 399.742188 679.800781 C 399.175781 679.417969 398.65625 678.980469 398.183594 678.488281 C 397.707031 678 397.285156 677.464844 396.917969 676.890625 C 396.550781 676.3125 396.246094 675.707031 396 675.070312 C 395.757812 674.429688 395.578125 673.777344 395.46875 673.101562 C 395.355469 672.429688 395.3125 671.75 395.339844 671.066406 C 395.363281 670.386719 395.460938 669.710938 395.621094 669.050781 C 395.785156 668.386719 396.011719 667.746094 396.300781 667.128906 C 396.59375 666.511719 396.945312 665.929688 397.355469 665.382812 C 397.765625 664.835938 398.226562 664.335938 398.734375 663.882812 C 399.246094 663.429688 399.796875 663.03125 400.390625 662.691406 C 400.980469 662.351562 401.601562 662.070312 402.25 661.855469 C 402.894531 661.640625 403.558594 661.492188 404.238281 661.410156 C 404.914062 661.328125 405.59375 661.316406 406.273438 661.371094 C 406.957031 661.425781 407.625 661.550781 408.277344 661.742188 C 408.933594 661.933594 409.566406 662.1875 410.167969 662.507812 C 410.773438 662.824219 411.339844 663.203125 411.867188 663.636719 L 502.128906 738.136719 C 529.515625 761.082031 565.28125 727.554688 552.378906 699.742188 C 548.4375 696.367188 440.121094 603.878906 440.019531 603.6875 C 439.53125 603.253906 439.089844 602.777344 438.695312 602.257812 C 438.296875 601.734375 437.953125 601.183594 437.664062 600.597656 C 437.378906 600.011719 437.148438 599.402344 436.976562 598.769531 C 436.808594 598.140625 436.699219 597.5 436.652344 596.847656 C 436.605469 596.195312 436.625 595.546875 436.707031 594.898438 C 436.785156 594.25 436.929688 593.613281 437.132812 592.992188 C 437.335938 592.371094 437.597656 591.777344 437.917969 591.207031 C 438.238281 590.636719 438.609375 590.101562 439.03125 589.605469 C 439.457031 589.109375 439.921875 588.65625 440.433594 588.25 C 440.945312 587.839844 441.492188 587.488281 442.074219 587.1875 C 442.652344 586.886719 443.257812 586.644531 443.882812 586.460938 C 444.511719 586.277344 445.148438 586.15625 445.800781 586.097656 C 446.453125 586.039062 447.101562 586.042969 447.753906 586.109375 C 448.402344 586.175781 449.039062 586.304688 449.664062 586.496094 C 450.289062 586.6875 450.890625 586.9375 451.464844 587.246094 C 452.042969 587.554688 452.585938 587.914062 453.089844 588.328125 L 559.921875 678.320312 C 560.710938 678.964844 561.527344 679.566406 562.375 680.132812 C 563.222656 680.695312 564.09375 681.21875 564.992188 681.699219 C 565.886719 682.175781 566.804688 682.613281 567.746094 683 C 568.6875 683.390625 569.640625 683.734375 570.617188 684.03125 C 571.589844 684.332031 572.574219 684.578125 573.570312 684.78125 C 574.570312 684.980469 575.574219 685.136719 576.585938 685.238281 C 577.597656 685.34375 578.613281 685.398438 579.628906 685.402344 C 580.648438 685.40625 581.664062 685.363281 582.675781 685.269531 C 583.6875 685.175781 584.695312 685.035156 585.695312 684.84375 C 586.695312 684.652344 587.679688 684.410156 588.65625 684.125 C 589.632812 683.835938 590.59375 683.503906 591.535156 683.121094 C 592.480469 682.742188 593.402344 682.316406 594.304688 681.847656 C 595.207031 681.375 596.085938 680.863281 596.9375 680.308594 C 597.789062 679.753906 598.613281 679.15625 599.410156 678.519531 C 600.203125 677.886719 600.964844 677.210938 601.695312 676.503906 C 602.421875 675.792969 603.117188 675.050781 603.773438 674.273438 C 604.429688 673.496094 605.046875 672.6875 605.625 671.851562 C 606.203125 671.015625 606.742188 670.152344 607.234375 669.261719 C 607.730469 668.375 608.179688 667.460938 608.585938 666.53125 C 608.992188 665.597656 609.351562 664.644531 609.667969 663.679688 C 609.980469 662.710938 610.246094 661.730469 610.464844 660.734375 C 610.683594 659.742188 610.851562 658.738281 610.972656 657.730469 C 611.09375 656.71875 611.167969 655.707031 611.1875 654.6875 C 611.210938 653.671875 611.183594 652.65625 611.109375 651.640625 C 611.03125 650.625 610.90625 649.617188 610.730469 648.617188 C 610.558594 647.613281 610.335938 646.621094 610.066406 645.640625 C 609.792969 644.660156 609.476562 643.695312 609.113281 642.746094 C 608.746094 641.792969 608.339844 640.863281 607.882812 639.953125 C 607.429688 639.042969 606.929688 638.15625 606.390625 637.296875 C 605.847656 636.433594 605.265625 635.601562 604.644531 634.796875 C 604.023438 633.992188 603.363281 633.21875 602.667969 632.476562 C 601.96875 631.734375 601.238281 631.03125 600.472656 630.359375 L 495.929688 542.121094 C 495.433594 541.6875 494.988281 541.210938 494.585938 540.6875 C 494.183594 540.167969 493.835938 539.613281 493.539062 539.027344 C 493.246094 538.4375 493.011719 537.828125 492.835938 537.191406 C 492.660156 536.558594 492.550781 535.914062 492.5 535.257812 C 492.449219 534.601562 492.464844 533.949219 492.542969 533.292969 C 492.621094 532.640625 492.757812 532.003906 492.960938 531.375 C 493.164062 530.75 493.425781 530.148438 493.742188 529.574219 C 494.0625 529 494.433594 528.460938 494.859375 527.957031 C 495.28125 527.457031 495.75 527 496.265625 526.585938 C 496.777344 526.175781 497.324219 525.816406 497.90625 525.511719 C 498.492188 525.207031 499.097656 524.960938 499.726562 524.773438 C 500.359375 524.585938 501 524.464844 501.65625 524.402344 C 502.3125 524.339844 502.964844 524.34375 503.621094 524.410156 C 504.273438 524.472656 504.917969 524.601562 505.546875 524.792969 C 506.175781 524.984375 506.78125 525.234375 507.363281 525.542969 C 507.941406 525.851562 508.488281 526.210938 509 526.628906 C 519.125 535.449219 598.699219 601.574219 610.980469 611.902344 C 611.785156 612.5625 612.617188 613.179688 613.484375 613.753906 C 614.347656 614.328125 615.238281 614.859375 616.15625 615.347656 C 617.070312 615.835938 618.011719 616.273438 618.972656 616.667969 C 619.933594 617.0625 620.910156 617.40625 621.90625 617.703125 C 622.902344 618 623.90625 618.246094 624.925781 618.445312 C 625.945312 618.640625 626.972656 618.785156 628.007812 618.882812 C 629.042969 618.976562 630.078125 619.019531 631.117188 619.011719 C 632.152344 619.003906 633.191406 618.945312 634.222656 618.835938 C 635.253906 618.726562 636.277344 618.5625 637.296875 618.351562 C 638.3125 618.140625 639.316406 617.878906 640.304688 617.566406 C 641.296875 617.253906 642.269531 616.894531 643.222656 616.488281 C 644.179688 616.078125 645.109375 615.625 646.019531 615.125 C 646.929688 614.625 647.8125 614.078125 648.667969 613.492188 C 649.523438 612.902344 650.347656 612.273438 651.140625 611.605469 C 651.933594 610.933594 652.695312 610.226562 653.417969 609.480469 C 654.140625 608.734375 654.824219 607.957031 655.46875 607.144531 C 656.117188 606.332031 656.71875 605.488281 657.28125 604.617188 C 657.84375 603.742188 658.363281 602.84375 658.835938 601.917969 C 659.308594 600.996094 659.734375 600.050781 660.113281 599.082031 C 660.492188 598.117188 660.824219 597.132812 661.105469 596.132812 C 661.386719 595.136719 661.621094 594.125 661.800781 593.101562 C 661.984375 592.078125 662.113281 591.050781 662.195312 590.015625 C 662.273438 588.980469 662.300781 587.945312 662.277344 586.90625 C 662.253906 585.867188 662.179688 584.832031 662.054688 583.800781 C 661.929688 582.773438 661.753906 581.75 661.523438 580.738281 C 661.296875 579.722656 661.019531 578.722656 660.695312 577.738281 C 660.367188 576.753906 659.992188 575.785156 659.570312 574.835938 C 659.148438 573.886719 658.679688 572.964844 658.167969 572.0625 C 657.652344 571.160156 657.097656 570.285156 656.496094 569.4375 C 655.894531 568.589844 655.253906 567.773438 654.570312 566.992188 C 653.890625 566.207031 653.171875 565.460938 652.414062 564.75 C 651.660156 564.035156 650.871094 563.363281 650.046875 562.730469 C 650.050781 562.730469 412.097656 359.578125 412 359.167969 Z M 412 359.167969 " fill-opacity="1" fill-rule="nonzero"/></g></svg>