<svg xmlns="http://www.w3.org/2000/svg" xmlns:xlink="http://www.w3.org/1999/xlink" width="1080" zoomAndPan="magnify" viewBox="0 0 810 1012.49997" height="1350" preserveAspectRatio="xMidYMid meet" version="1.0"><defs><clipPath id="07255cd22b"><path d="M 331 878 L 456 878 L 456 931.304688 L 331 931.304688 Z M 331 878 " clip-rule="nonzero"/></clipPath><clipPath id="f25deaec98"><path d="M 394 102.964844 L 416 102.964844 L 416 181 L 394 181 Z M 394 102.964844 " clip-rule="nonzero"/></clipPath></defs><path fill="#0f703a" d="M 383.347656 710.785156 L 383.347656 248.929688 C 264.105469 254.363281 168.753906 353.058594 168.753906 473.628906 C 168.753906 555.246094 196.117188 585.230469 225.0625 616.972656 C 246.75 640.710938 269.105469 665.226562 277.042969 710.769531 L 383.347656 710.769531 Z M 383.347656 710.785156 " fill-opacity="1" fill-rule="nonzero"/><path fill="#0f703a" d="M 512.957031 731.472656 L 274.386719 731.472656 C 273.953125 731.472656 273.523438 731.488281 273.09375 731.503906 C 272.78125 731.523438 272.488281 731.539062 272.195312 731.574219 C 271.832031 731.609375 271.453125 731.644531 271.054688 731.695312 C 270.675781 731.746094 270.28125 731.800781 269.882812 731.867188 L 269.867188 731.867188 C 269.847656 731.867188 269.847656 731.867188 269.832031 731.867188 C 257.445312 734.023438 248.007812 744.875 248.007812 757.867188 C 248.007812 772.375 259.84375 784.191406 274.386719 784.191406 L 512.941406 784.191406 C 527.484375 784.191406 539.316406 772.375 539.316406 757.867188 C 539.335938 743.304688 527.5 731.472656 512.957031 731.472656 Z M 512.957031 731.472656 " fill-opacity="1" fill-rule="nonzero"/><path fill="#0f703a" d="M 486.890625 804.875 L 300.46875 804.875 C 285.960938 804.875 274.144531 816.710938 274.144531 831.253906 C 274.144531 845.8125 285.960938 857.648438 300.46875 857.648438 L 486.890625 857.648438 C 501.433594 857.648438 513.269531 845.8125 513.269531 831.253906 C 513.269531 816.710938 501.433594 804.875 486.890625 804.875 Z M 486.890625 804.875 " fill-opacity="1" fill-rule="nonzero"/><g clip-path="url(#07255cd22b)"><path fill="#0f703a" d="M 393.679688 931.035156 C 424.941406 931.035156 450.972656 908.210938 455.941406 878.332031 L 331.472656 878.332031 C 336.421875 908.210938 362.4375 931.035156 393.679688 931.035156 Z M 393.679688 931.035156 " fill-opacity="1" fill-rule="nonzero"/></g><path fill="#0f703a" d="M 625.210938 499.886719 C 622.96875 497.921875 621.691406 495.089844 621.691406 492.105469 C 621.691406 489.121094 622.96875 486.292969 625.210938 484.328125 C 638.617188 472.5625 644.257812 453.859375 639.566406 436.695312 C 634.839844 419.238281 620.863281 406.28125 603.078125 402.847656 C 599.992188 402.242188 597.335938 400.277344 595.886719 397.5 C 594.417969 394.722656 594.296875 391.410156 595.558594 388.546875 C 602.820312 371.96875 600.113281 353.078125 588.46875 339.257812 C 576.855469 325.441406 558.792969 319.59375 541.300781 323.957031 C 541.25 323.972656 541.214844 323.972656 541.164062 323.992188 C 532.882812 326.25 525.949219 331.582031 521.632812 339.015625 C 517.304688 346.503906 516.148438 355.214844 518.390625 363.546875 C 519.875 369.070312 516.597656 374.746094 511.078125 376.230469 C 510.179688 376.46875 509.28125 376.574219 508.402344 376.574219 C 503.832031 376.574219 499.65625 373.539062 498.414062 368.914062 C 494.738281 355.214844 496.636719 340.933594 503.726562 328.667969 C 509.316406 319.003906 517.613281 311.5 527.585938 306.980469 C 525 291.921875 515.285156 279.066406 501.105469 272.476562 C 484.683594 264.851562 465.738281 267.183594 451.679688 278.566406 C 449.230469 280.550781 446.019531 281.3125 442.933594 280.636719 C 439.863281 279.949219 437.257812 277.894531 435.878906 275.066406 C 429.496094 261.972656 417.78125 252.878906 404.03125 249.828125 L 404.03125 504.40625 C 433.667969 499.664062 456.699219 474.890625 458.789062 444.457031 C 450.957031 443.957031 443.121094 441.679688 435.859375 437.488281 C 430.910156 434.640625 429.199219 428.3125 432.066406 423.375 C 434.910156 418.425781 441.242188 416.71875 446.175781 419.582031 C 461.652344 428.5 481.492188 423.167969 490.390625 407.730469 C 493.253906 402.777344 499.570312 401.070312 504.519531 403.933594 C 509.472656 406.78125 511.179688 413.113281 508.316406 418.046875 C 501.675781 429.585938 491.304688 437.679688 479.59375 441.679688 C 478.746094 484.808594 445.988281 520.242188 404.03125 525.296875 L 404.03125 710.769531 L 503.070312 710.769531 C 518.21875 702.867188 527.808594 687.617188 528.277344 670.382812 L 528.277344 670.261719 C 528.277344 652.425781 513.75 637.917969 495.878906 637.917969 C 490.167969 637.917969 485.542969 633.277344 485.542969 627.566406 C 485.542969 621.855469 490.167969 617.230469 495.878906 617.230469 C 522.152344 617.230469 544.007812 636.382812 548.21875 661.449219 C 563.453125 662.898438 578.390625 656.875 588.464844 644.921875 C 600.007812 631.238281 602.785156 612.625 595.765625 596.152344 L 595.765625 596.132812 C 586.671875 581.105469 567.125 576.019531 551.875 584.832031 C 546.925781 587.679688 540.59375 585.988281 537.746094 581.054688 C 534.882812 576.105469 536.574219 569.773438 541.527344 566.925781 C 564.433594 553.675781 593.296875 559.578125 609.410156 579.640625 C 623.96875 574.65625 635.460938 562.613281 639.546875 547.535156 C 644.328125 530.078125 638.824219 511.824219 625.210938 499.886719 Z M 568.179688 482.996094 C 564.523438 496.679688 555.742188 508.117188 543.457031 515.207031 C 541.820312 516.136719 540.042969 516.585938 538.300781 516.585938 C 534.710938 516.585938 531.242188 514.722656 529.328125 511.410156 C 526.464844 506.460938 528.171875 500.128906 533.125 497.28125 C 540.609375 492.96875 545.976562 485.984375 548.203125 477.632812 C 550.445312 469.300781 549.289062 460.589844 544.976562 453.117188 C 542.113281 448.183594 543.820312 441.851562 548.753906 438.988281 C 553.707031 436.144531 560.035156 437.832031 562.882812 442.765625 C 569.972656 455.035156 571.855469 469.316406 568.179688 482.996094 Z M 568.179688 482.996094 " fill-opacity="1" fill-rule="nonzero"/><g clip-path="url(#f25deaec98)"><path fill="#0f703a" d="M 404.980469 180.128906 C 410.691406 180.128906 415.332031 175.507812 415.332031 169.78125 L 415.332031 113.316406 C 415.332031 107.605469 410.707031 102.964844 404.980469 102.964844 C 399.253906 102.964844 394.628906 107.589844 394.628906 113.316406 L 394.628906 169.796875 C 394.628906 175.507812 399.253906 180.128906 404.980469 180.128906 Z M 404.980469 180.128906 " fill-opacity="1" fill-rule="nonzero"/></g><path fill="#0f703a" d="M 244.128906 215.652344 C 246.042969 218.964844 249.527344 220.828125 253.097656 220.828125 C 254.859375 220.828125 256.632812 220.378906 258.257812 219.429688 C 263.207031 216.566406 264.898438 210.25 262.035156 205.300781 L 233.777344 156.394531 C 230.914062 151.441406 224.597656 149.75 219.648438 152.613281 C 214.695312 155.476562 213.003906 161.792969 215.867188 166.742188 Z M 244.128906 215.652344 " fill-opacity="1" fill-rule="nonzero"/><path fill="#0f703a" d="M 147.054688 312.777344 L 98.09375 284.503906 C 93.140625 281.636719 86.828125 283.347656 83.964844 288.28125 C 81.101562 293.230469 82.808594 299.546875 87.742188 302.410156 L 136.703125 330.683594 C 138.324219 331.632812 140.101562 332.066406 141.859375 332.066406 C 145.429688 332.066406 148.917969 330.203125 150.832031 326.890625 C 153.695312 321.957031 151.988281 315.640625 147.054688 312.777344 Z M 147.054688 312.777344 " fill-opacity="1" fill-rule="nonzero"/><path fill="#0f703a" d="M 101.128906 463.28125 L 44.648438 463.28125 C 38.9375 463.28125 34.296875 467.902344 34.296875 473.628906 C 34.296875 479.339844 38.921875 483.980469 44.648438 483.980469 L 101.128906 483.980469 C 106.839844 483.980469 111.480469 479.359375 111.480469 473.628906 C 111.480469 467.921875 106.855469 463.28125 101.128906 463.28125 Z M 101.128906 463.28125 " fill-opacity="1" fill-rule="nonzero"/><path fill="#0f703a" d="M 551.738281 219.429688 C 553.359375 220.378906 555.152344 220.828125 556.898438 220.828125 C 560.46875 220.828125 563.953125 218.980469 565.867188 215.652344 L 594.125 166.742188 C 596.988281 161.792969 595.296875 155.476562 590.347656 152.613281 C 585.394531 149.75 579.082031 151.441406 576.21875 156.394531 L 547.960938 205.300781 C 545.097656 210.25 546.789062 216.566406 551.738281 219.429688 Z M 551.738281 219.429688 " fill-opacity="1" fill-rule="nonzero"/><path fill="#0f703a" d="M 726.03125 288.296875 C 723.167969 283.347656 716.851562 281.65625 711.902344 284.519531 L 662.941406 312.777344 C 657.992188 315.640625 656.300781 321.957031 659.164062 326.90625 C 661.078125 330.21875 664.5625 332.082031 668.132812 332.082031 C 669.894531 332.082031 671.671875 331.632812 673.292969 330.703125 L 722.253906 302.445312 C 727.1875 299.5625 728.894531 293.25 726.03125 288.296875 Z M 726.03125 288.296875 " fill-opacity="1" fill-rule="nonzero"/><path fill="#0f703a" d="M 765.347656 463.28125 L 708.863281 463.28125 C 703.15625 463.28125 698.515625 467.902344 698.515625 473.628906 C 698.515625 479.339844 703.136719 483.980469 708.863281 483.980469 L 765.347656 483.980469 C 771.054688 483.980469 775.695312 479.359375 775.695312 473.628906 C 775.679688 467.921875 771.054688 463.28125 765.347656 463.28125 Z M 765.347656 463.28125 " fill-opacity="1" fill-rule="nonzero"/></svg>